<?xml version="1.0" encoding="UTF-8"?>
<svg xmlns="http://www.w3.org/2000/svg" width="32" height="32" viewBox="0 0 32 32" fill="none">
  <path d="M27 5H5C4.44772 5 4 5.44772 4 6V26C4 26.5523 4.44772 27 5 27H27C27.5523 27 28 26.5523 28 26V6C28 5.44772 27.5523 5 27 5Z" fill="#0096FF"/>
  <path d="M7 10H10V22H7V10Z" fill="white"/>
  <path d="M12 10H15V22H12V10Z" fill="white"/>
  <path d="M17 10H25V13H17V10Z" fill="white"/>
  <path d="M17 15H25V18H17V15Z" fill="white"/>
  <path d="M17 20H25V23H17V20Z" fill="white"/>
</svg>
